<?xml version="1.0" encoding="UTF-8" standalone="no"?>
<!DOCTYPE svg PUBLIC "-//W3C//DTD SVG 1.1//EN" "http://www.w3.org/Graphics/SVG/1.1/DTD/svg11.dtd">
<svg version="1.1" xmlns="http://www.w3.org/2000/svg" xmlns:xlink="http://www.w3.org/1999/xlink" preserveAspectRatio="xMidYMid meet" viewBox="0 0 400 400" width="400" height="400"><defs><path d="M0 0L400 0L400 400L0 400L0 0Z" id="a5FlBmLIl"></path><path d="M300 200C300 255.19 255.19 300 200 300C144.81 300 100 255.19 100 200C100 144.81 144.81 100 200 100C255.19 100 300 144.81 300 200Z" id="c18PAfZQla"></path><path d="M225 200C225 213.8 213.8 225 200 225C186.2 225 175 213.8 175 200C175 186.2 186.2 175 200 175C213.8 175 225 186.2 225 200Z" id="a1x5XSucYY"></path><path d="" id="aGGbSKAY6"></path><path d="M225 145L225 166.68L225 181.64L225 200.33L225 213.04L225 225" id="a1OBUfZnc"></path><path d="M225 65L225 83.97L225 97.06L225 113.41L225 124.53L225 135" id="a2ocvE02f"></path><path d="M225 240L225 256.26L225 267.48L225 281.5L225 291.03L225 300" id="al9o34EKr"></path><path d="M175 100L175 116.26L175 127.48L175 141.5L175 151.03L175 160" id="b1j2QTPpqr"></path><path d="M175 175L175 196.68L175 211.64L175 230.33L175 243.04L175 255" id="a1rrQckrG"></path><path d="M175 265L175 283.97L175 297.06L175 313.41L175 324.53L175 335" id="a2dl2ru6n"></path></defs><g><g><g><use xlink:href="#a5FlBmLIl" opacity="1" fill="#ffffff" fill-opacity="1"></use><g><use xlink:href="#a5FlBmLIl" opacity="1" fill-opacity="0" stroke="#006266" stroke-width="0" stroke-opacity="1"></use></g></g><g><use xlink:href="#c18PAfZQla" opacity="1" fill="#ffffff" fill-opacity="1"></use><g><use xlink:href="#c18PAfZQla" opacity="1" fill-opacity="0" stroke="#0e3447" stroke-width="10" stroke-opacity="1"></use></g></g><g><g><filter id="shadow7364619" x="166" y="166" width="69" height="69" filterUnits="userSpaceOnUse" primitiveUnits="userSpaceOnUse"><feFlood></feFlood><feComposite in2="SourceAlpha" operator="in"></feComposite><feGaussianBlur stdDeviation="1"></feGaussianBlur><feOffset dx="1" dy="1" result="afterOffset"></feOffset><feFlood flood-color="#000000" flood-opacity="0.5"></feFlood><feComposite in2="afterOffset" operator="in"></feComposite><feMorphology operator="dilate" radius="1"></feMorphology><feComposite in2="SourceAlpha" operator="out"></feComposite></filter><path d="M225 200C225 213.8 213.8 225 200 225C186.2 225 175 213.8 175 200C175 186.2 186.2 175 200 175C213.8 175 225 186.2 225 200Z" id="a3yjbbon5" fill="white" fill-opacity="1" filter="url(#shadow7364619)"></path></g><use xlink:href="#a1x5XSucYY" opacity="1" fill="#ffffff" fill-opacity="1"></use><g><use xlink:href="#a1x5XSucYY" opacity="1" fill-opacity="0" stroke="#3fdad2" stroke-width="10" stroke-opacity="1"></use></g></g><g><g><use xlink:href="#aGGbSKAY6" opacity="1" fill-opacity="0" stroke="#2cc1a6" stroke-width="10" stroke-opacity="1"></use></g></g><g><g><use xlink:href="#a1OBUfZnc" opacity="1" fill-opacity="0" stroke="#3fdad2" stroke-width="10" stroke-opacity="1"></use></g></g><g><g><use xlink:href="#a2ocvE02f" opacity="1" fill-opacity="0" stroke="#0e3447" stroke-width="10" stroke-opacity="1"></use></g></g><g><g><use xlink:href="#al9o34EKr" opacity="1" fill-opacity="0" stroke="#0e3447" stroke-width="10" stroke-opacity="1"></use></g></g><g><g><use xlink:href="#b1j2QTPpqr" opacity="1" fill-opacity="0" stroke="#0e3447" stroke-width="10" stroke-opacity="1"></use></g></g><g><g><use xlink:href="#a1rrQckrG" opacity="1" fill-opacity="0" stroke="#3fdad2" stroke-width="10" stroke-opacity="1"></use></g></g><g><g><use xlink:href="#a2dl2ru6n" opacity="1" fill-opacity="0" stroke="#0e3447" stroke-width="10" stroke-opacity="1"></use></g></g></g></g></svg>